<svg width="105" height="55" viewBox="0 0 105 55" fill="none" xmlns="http://www.w3.org/2000/svg">
<g style="mix-blend-mode:luminosity" clip-path="url(#clip0_1_490)">
<path d="M52.5369 54.837C81.4242 54.837 104.842 42.5613 104.842 27.4185C104.842 12.2757 81.4242 0 52.5369 0C23.6497 0 0.231934 12.2757 0.231934 27.4185C0.231934 42.5613 23.6497 54.837 52.5369 54.837Z" fill="url(#paint0_radial_1_490)"/>
<path d="M52.537 52.7999C80.2958 52.7999 102.799 41.4363 102.799 27.4185C102.799 13.4007 80.2958 2.03699 52.537 2.03699C24.7781 2.03699 2.27515 13.4007 2.27515 27.4185C2.27515 41.4363 24.7781 52.7999 52.537 52.7999Z" fill="#6181B6"/>
<path d="M62.7119 35.6482L65.2046 22.8556C65.7767 19.963 65.2863 17.8037 63.8152 16.4593C62.385 15.1556 59.9332 14.5037 56.3373 14.5037H52.0057L53.2316 8.14819C53.2725 7.90374 53.2317 7.6593 53.0682 7.45559C52.9047 7.25189 52.7004 7.17041 52.4552 7.17041H46.4892C46.0806 7.17041 45.7537 7.4556 45.6719 7.82226L43.0158 21.3889C42.7707 19.8408 42.1986 18.5371 41.2179 17.4778C39.4607 15.4815 36.7229 14.463 33.0043 14.463H21.5218C21.1131 14.463 20.7862 14.7482 20.7045 15.1149L15.3514 42.6556C15.3105 42.9 15.3514 43.1445 15.5149 43.3482C15.6783 43.5519 15.8826 43.6334 16.1278 43.6334H22.1347C22.5433 43.6334 22.8702 43.3482 22.952 42.9815L24.2596 36.3408H28.7137C31.0429 36.3408 33.0452 36.0963 34.5571 35.6075C36.1508 35.0778 37.581 34.2223 38.8478 33.0408C39.8694 32.1037 40.7275 31.0445 41.3813 29.9037L40.3189 35.4037C40.278 35.6482 40.3189 35.8926 40.4823 36.0963C40.6458 36.3 40.8501 36.3815 41.0953 36.3815H47.0613C47.4699 36.3815 47.7968 36.0963 47.8786 35.7297L50.8207 20.6556H54.907C56.6642 20.6556 57.1545 20.9815 57.318 21.1445C57.4406 21.2667 57.6857 21.7556 57.3997 23.263L55.0296 35.4445C54.9888 35.6889 55.0296 35.9334 55.1931 36.1371C55.3565 36.3408 55.5609 36.4223 55.806 36.4223H61.9355C62.3033 36.3 62.6302 36.0149 62.7119 35.6482ZM35.0884 25.0556C34.7206 26.9704 34.0259 28.3556 33.0043 29.1297C31.9828 29.9037 30.3074 30.3112 28.1007 30.3112H25.4446L27.3652 20.4519H30.7977C33.3312 20.4519 34.3528 20.9815 34.7615 21.4297C35.2927 22.0815 35.4153 23.3445 35.0884 25.0556Z" fill="white"/>
<path d="M88.2106 17.4778C86.4535 15.4815 83.7156 14.463 79.9971 14.463H68.4328C68.0241 14.463 67.6972 14.7482 67.6155 15.1149L62.2624 42.6149C62.2216 42.8593 62.2624 43.1038 62.4259 43.3075C62.5893 43.5112 62.7936 43.5926 63.0388 43.5926H69.0457C69.4544 43.5926 69.7813 43.3075 69.863 42.9408L71.1706 36.3H75.6247C77.9539 36.3 79.9562 36.0556 81.4682 35.5667C83.0618 35.0371 84.492 34.1815 85.7588 33C86.8212 32.0223 87.7202 30.9223 88.3741 29.7408C89.0279 28.5593 89.5182 27.2556 89.8043 25.8297C90.4989 22.2852 89.9677 19.5149 88.2106 17.4778ZM81.9585 25.0556C81.5907 26.9704 80.8961 28.3556 79.8745 29.1297C78.8529 29.9038 77.1775 30.3112 74.9709 30.3112H72.3148L74.2354 20.4519H77.6679C80.2014 20.4519 81.223 20.9815 81.6316 21.4297C82.2037 22.0815 82.3263 23.3445 81.9585 25.0556Z" fill="white"/>
<path d="M30.7978 19.6371C33.0861 19.6371 34.598 20.0445 35.3744 20.9001C36.1508 21.7556 36.3143 23.1815 35.9057 25.2186C35.497 27.3371 34.6798 28.8852 33.4947 29.7815C32.3097 30.6778 30.5117 31.126 28.1008 31.126H24.4639L26.7114 19.6371H30.7978ZM16.1687 42.7778H22.1756L23.6058 35.4852H28.7546C31.0429 35.4852 32.8818 35.2408 34.3529 34.7519C35.8239 34.263 37.1316 33.4889 38.3575 32.3482C39.379 31.4112 40.1963 30.3926 40.8093 29.2926C41.4222 28.1926 41.8717 26.9704 42.1169 25.626C42.7707 22.3667 42.2803 19.8408 40.6867 18.0075C39.093 16.1741 36.5595 15.2778 33.0861 15.2778H21.5218L16.1687 42.7778Z" fill="#010101"/>
<path d="M46.5301 7.98523H52.4961L51.0659 15.2778H56.3781C59.7289 15.2778 62.0173 15.8482 63.284 17.0297C64.5508 18.2112 64.9186 20.0852 64.4282 22.6926L61.9355 35.4852H55.8878L58.2579 23.3037C58.5439 21.9186 58.4213 20.9815 57.9718 20.4926C57.5223 20.0037 56.5007 19.7186 54.9888 19.7186H50.2078L47.143 35.4852H41.177L46.5301 7.98523Z" fill="#010101"/>
<path d="M77.6679 19.6371C79.9562 19.6371 81.4682 20.0445 82.2446 20.9001C83.021 21.7556 83.1844 23.1815 82.7758 25.2186C82.3671 27.3371 81.5499 28.8852 80.3648 29.7815C79.1798 30.6778 77.3818 31.126 74.9709 31.126H71.3341L73.5815 19.6371H77.6679ZM63.0388 42.7778H69.0457L70.4759 35.4852H75.6247C77.9131 35.4852 79.7519 35.2408 81.223 34.7519C82.6941 34.263 84.0017 33.4889 85.2276 32.3482C86.2492 31.4112 87.0664 30.3926 87.6794 29.2926C88.2923 28.1926 88.7418 26.9704 88.987 25.626C89.6408 22.3667 89.1504 19.8408 87.5568 18.0075C85.9631 16.1741 83.4296 15.2778 79.9562 15.2778H68.3919L63.0388 42.7778Z" fill="#010101"/>
</g>
<defs>
<radialGradient id="paint0_radial_1_490" cx="0" cy="0" r="1" gradientUnits="userSpaceOnUse" gradientTransform="translate(31.6361 9.6424) scale(68.6892 68.4832)">
<stop stop-color="white"/>
<stop offset="0.5" stop-color="#4C6B97"/>
<stop offset="1" stop-color="#231F20"/>
</radialGradient>
<clipPath id="clip0_1_490">
<rect width="104.61" height="55" fill="white" transform="translate(0.231934)"/>
</clipPath>
</defs>
</svg>
